<svg width="900" height="900" viewBox="0 0 900 900" fill="none" xmlns="http://www.w3.org/2000/svg">
<rect width="900" height="900" fill="#FFE1F6"/>
<rect x="57.5" y="69.5" width="786" height="762" rx="32.5" fill="#FFF1FB" stroke="#D20093"/>
<path d="M228 407C228 393.193 239.193 382 253 382H282C295.807 382 307 393.193 307 407V584H228V407Z" fill="#D7D7D7"/>
<path d="M398 407C398 393.193 409.193 382 423 382H452C465.807 382 477 393.193 477 407V585H398V407Z" fill="#E3E3E3"/>
<line x1="228" y1="569.8" x2="307" y2="569.8" stroke="#3E3E3E" stroke-width="0.4"/>
<path d="M184.5 450C184.5 448.067 186.067 446.5 188 446.5H208.051C209.156 446.5 210.196 447.021 210.856 447.906L219.813 459.906C220.74 461.148 220.74 462.852 219.813 464.094L210.856 476.094C210.196 476.979 209.156 477.5 208.051 477.5H188C186.067 477.5 184.5 475.933 184.5 474V450Z" fill="#D20093" stroke="#ED9ED5"/>
<rect x="228" y="570" width="79" height="83" fill="#878787"/>
<path d="M93 712H355.488H383.19H508.542H530.479H805V616H93V712Z" fill="#FFF1FB"/>
<path d="M127.409 193L146.182 155.818V155.523H124.227V146.455H157.818V155.591L138.977 193H127.409ZM181.653 193.636C179.108 193.636 176.669 193.227 174.335 192.409C172.002 191.576 169.926 190.258 168.108 188.455C166.29 186.636 164.858 184.258 163.812 181.318C162.767 178.364 162.252 174.765 162.267 170.523C162.282 166.689 162.752 163.25 163.676 160.205C164.6 157.144 165.919 154.545 167.631 152.409C169.358 150.273 171.419 148.644 173.812 147.523C176.222 146.386 178.911 145.818 181.881 145.818C185.138 145.818 188.009 146.455 190.494 147.727C192.994 148.985 194.994 150.682 196.494 152.818C197.994 154.939 198.881 157.303 199.153 159.909H188.085C187.752 158.439 187.017 157.326 185.881 156.568C184.759 155.795 183.426 155.409 181.881 155.409C179.032 155.409 176.903 156.644 175.494 159.114C174.1 161.583 173.388 164.886 173.358 169.023H173.653C174.29 167.629 175.206 166.432 176.403 165.432C177.6 164.432 178.972 163.667 180.517 163.136C182.078 162.591 183.729 162.318 185.472 162.318C188.259 162.318 190.722 162.962 192.858 164.25C194.994 165.538 196.669 167.303 197.881 169.545C199.093 171.773 199.691 174.326 199.676 177.205C199.691 180.447 198.934 183.311 197.403 185.795C195.873 188.265 193.752 190.189 191.04 191.568C188.343 192.947 185.214 193.636 181.653 193.636ZM181.585 185C182.964 185 184.199 184.674 185.29 184.023C186.381 183.371 187.237 182.485 187.858 181.364C188.479 180.242 188.782 178.977 188.767 177.568C188.782 176.144 188.479 174.879 187.858 173.773C187.252 172.667 186.403 171.788 185.312 171.136C184.237 170.485 183.002 170.159 181.608 170.159C180.593 170.159 179.646 170.348 178.767 170.727C177.888 171.106 177.123 171.636 176.472 172.318C175.835 172.985 175.335 173.773 174.972 174.682C174.608 175.576 174.419 176.545 174.403 177.591C174.419 178.97 174.737 180.22 175.358 181.341C175.979 182.462 176.828 183.356 177.903 184.023C178.979 184.674 180.206 185 181.585 185ZM232.125 184.273V181.818C232.125 179.909 232.534 178.144 233.352 176.523C234.186 174.902 235.39 173.598 236.966 172.614C238.542 171.629 240.466 171.136 242.739 171.136C245.057 171.136 247.004 171.629 248.58 172.614C250.17 173.583 251.367 174.879 252.17 176.5C252.989 178.106 253.398 179.879 253.398 181.818V184.273C253.398 186.182 252.989 187.947 252.17 189.568C251.352 191.189 250.148 192.492 248.557 193.477C246.966 194.462 245.027 194.955 242.739 194.955C240.436 194.955 238.496 194.462 236.92 193.477C235.345 192.492 234.148 191.189 233.33 189.568C232.527 187.947 232.125 186.182 232.125 184.273ZM239.375 181.818V184.273C239.375 185.242 239.61 186.174 240.08 187.068C240.564 187.962 241.451 188.409 242.739 188.409C244.057 188.409 244.943 187.977 245.398 187.114C245.852 186.235 246.08 185.288 246.08 184.273V181.818C246.08 180.803 245.86 179.848 245.42 178.955C244.996 178.045 244.102 177.591 242.739 177.591C241.466 177.591 240.587 178.045 240.102 178.955C239.617 179.848 239.375 180.803 239.375 181.818ZM207.989 157.636V155.182C207.989 153.242 208.405 151.47 209.239 149.864C210.087 148.242 211.299 146.947 212.875 145.977C214.451 144.992 216.36 144.5 218.602 144.5C220.92 144.5 222.867 144.992 224.443 145.977C226.034 146.947 227.239 148.242 228.057 149.864C228.875 151.47 229.284 153.242 229.284 155.182V157.636C229.284 159.576 228.867 161.348 228.034 162.955C227.216 164.561 226.011 165.841 224.42 166.795C222.83 167.75 220.89 168.227 218.602 168.227C216.314 168.227 214.375 167.742 212.784 166.773C211.208 165.803 210.011 164.515 209.193 162.909C208.39 161.303 207.989 159.545 207.989 157.636ZM215.307 155.182V157.636C215.307 158.652 215.542 159.598 216.011 160.477C216.496 161.341 217.36 161.773 218.602 161.773C219.936 161.773 220.822 161.341 221.261 160.477C221.716 159.598 221.943 158.652 221.943 157.636V155.182C221.943 154.167 221.731 153.212 221.307 152.318C220.883 151.409 219.981 150.955 218.602 150.955C217.33 150.955 216.458 151.417 215.989 152.341C215.534 153.265 215.307 154.212 215.307 155.182ZM211.42 193L243.42 146.455H249.625L217.625 193H211.42Z" fill="black"/>
<circle cx="132" cy="252" r="10" fill="black"/>
<path d="M164.125 262H161.898L170.364 238.727H172.636L181.102 262H178.875L171.58 241.489H171.42L164.125 262ZM165.727 253.08H177.273V254.989H165.727V253.08ZM191.489 262.364C189.928 262.364 188.568 261.973 187.409 261.193C186.258 260.413 185.364 259.345 184.727 257.989C184.091 256.633 183.773 255.087 183.773 253.352C183.773 251.602 184.095 250.045 184.739 248.682C185.39 247.318 186.292 246.25 187.443 245.477C188.595 244.697 189.932 244.307 191.455 244.307C192.621 244.307 193.678 244.534 194.625 244.989C195.572 245.436 196.352 246.068 196.966 246.886C197.587 247.697 197.977 248.644 198.136 249.727H196.091C195.879 248.742 195.367 247.902 194.557 247.205C193.754 246.5 192.731 246.148 191.489 246.148C190.375 246.148 189.39 246.451 188.534 247.057C187.678 247.655 187.008 248.492 186.523 249.568C186.045 250.636 185.807 251.875 185.807 253.284C185.807 254.701 186.042 255.955 186.511 257.045C186.981 258.129 187.64 258.977 188.489 259.591C189.345 260.205 190.345 260.511 191.489 260.511C192.261 260.511 192.966 260.367 193.602 260.08C194.246 259.784 194.784 259.367 195.216 258.83C195.655 258.292 195.951 257.652 196.102 256.909H198.148C197.996 257.962 197.621 258.902 197.023 259.727C196.432 260.545 195.663 261.189 194.716 261.659C193.777 262.129 192.701 262.364 191.489 262.364ZM209.301 262.364C207.741 262.364 206.381 261.973 205.222 261.193C204.07 260.413 203.176 259.345 202.54 257.989C201.903 256.633 201.585 255.087 201.585 253.352C201.585 251.602 201.907 250.045 202.551 248.682C203.203 247.318 204.104 246.25 205.256 245.477C206.407 244.697 207.744 244.307 209.267 244.307C210.434 244.307 211.491 244.534 212.438 244.989C213.384 245.436 214.165 246.068 214.778 246.886C215.4 247.697 215.79 248.644 215.949 249.727H213.903C213.691 248.742 213.18 247.902 212.369 247.205C211.566 246.5 210.544 246.148 209.301 246.148C208.188 246.148 207.203 246.451 206.347 247.057C205.491 247.655 204.82 248.492 204.335 249.568C203.858 250.636 203.619 251.875 203.619 253.284C203.619 254.701 203.854 255.955 204.324 257.045C204.794 258.129 205.453 258.977 206.301 259.591C207.157 260.205 208.157 260.511 209.301 260.511C210.074 260.511 210.778 260.367 211.415 260.08C212.059 259.784 212.597 259.367 213.028 258.83C213.468 258.292 213.763 257.652 213.915 256.909H215.96C215.809 257.962 215.434 258.902 214.835 259.727C214.244 260.545 213.475 261.189 212.528 261.659C211.589 262.129 210.513 262.364 209.301 262.364ZM231.386 255.33V244.545H233.409V262H231.386V259.102H231.227C230.818 259.996 230.17 260.742 229.284 261.341C228.398 261.932 227.314 262.227 226.034 262.227C224.92 262.227 223.932 261.985 223.068 261.5C222.205 261.008 221.527 260.288 221.034 259.341C220.542 258.394 220.295 257.231 220.295 255.852V244.545H222.318V255.727C222.318 257.091 222.72 258.189 223.523 259.023C224.326 259.848 225.356 260.261 226.614 260.261C227.402 260.261 228.159 260.072 228.886 259.693C229.614 259.314 230.212 258.761 230.682 258.034C231.152 257.299 231.386 256.398 231.386 255.33ZM238.764 262V244.545H240.73V247.227H240.878C241.226 246.348 241.832 245.64 242.696 245.102C243.567 244.557 244.552 244.284 245.651 244.284C245.817 244.284 246.003 244.288 246.207 244.295C246.412 244.303 246.582 244.311 246.719 244.318V246.375C246.628 246.36 246.469 246.337 246.241 246.307C246.014 246.277 245.768 246.261 245.503 246.261C244.594 246.261 243.783 246.455 243.071 246.841C242.366 247.22 241.81 247.746 241.401 248.42C240.991 249.095 240.787 249.864 240.787 250.727V262H238.764ZM255.045 262.398C253.992 262.398 253.03 262.193 252.159 261.784C251.288 261.367 250.595 260.769 250.08 259.989C249.564 259.201 249.307 258.246 249.307 257.125C249.307 256.261 249.47 255.534 249.795 254.943C250.121 254.352 250.583 253.867 251.182 253.489C251.78 253.11 252.489 252.811 253.307 252.591C254.125 252.371 255.027 252.201 256.011 252.08C256.989 251.958 257.814 251.852 258.489 251.761C259.17 251.67 259.689 251.527 260.045 251.33C260.402 251.133 260.58 250.814 260.58 250.375V249.966C260.58 248.777 260.223 247.841 259.511 247.159C258.807 246.47 257.792 246.125 256.466 246.125C255.208 246.125 254.182 246.402 253.386 246.955C252.598 247.508 252.045 248.159 251.727 248.909L249.807 248.216C250.201 247.261 250.746 246.5 251.443 245.932C252.14 245.356 252.92 244.943 253.784 244.693C254.648 244.436 255.523 244.307 256.409 244.307C257.076 244.307 257.769 244.394 258.489 244.568C259.216 244.742 259.89 245.045 260.511 245.477C261.133 245.902 261.636 246.496 262.023 247.261C262.409 248.019 262.602 248.981 262.602 250.148V262H260.58V259.239H260.455C260.212 259.754 259.852 260.254 259.375 260.739C258.898 261.223 258.299 261.621 257.58 261.932C256.86 262.242 256.015 262.398 255.045 262.398ZM255.318 260.545C256.394 260.545 257.326 260.307 258.114 259.83C258.902 259.352 259.508 258.72 259.932 257.932C260.364 257.136 260.58 256.261 260.58 255.307V252.784C260.428 252.928 260.174 253.057 259.818 253.17C259.47 253.284 259.064 253.386 258.602 253.477C258.148 253.561 257.693 253.633 257.239 253.693C256.784 253.754 256.375 253.807 256.011 253.852C255.027 253.973 254.186 254.163 253.489 254.42C252.792 254.678 252.258 255.034 251.886 255.489C251.515 255.936 251.33 256.511 251.33 257.216C251.33 258.277 251.708 259.098 252.466 259.682C253.223 260.258 254.174 260.545 255.318 260.545ZM274.801 262.364C273.241 262.364 271.881 261.973 270.722 261.193C269.57 260.413 268.676 259.345 268.04 257.989C267.403 256.633 267.085 255.087 267.085 253.352C267.085 251.602 267.407 250.045 268.051 248.682C268.703 247.318 269.604 246.25 270.756 245.477C271.907 244.697 273.244 244.307 274.767 244.307C275.934 244.307 276.991 244.534 277.938 244.989C278.884 245.436 279.665 246.068 280.278 246.886C280.9 247.697 281.29 248.644 281.449 249.727H279.403C279.191 248.742 278.68 247.902 277.869 247.205C277.066 246.5 276.044 246.148 274.801 246.148C273.688 246.148 272.703 246.451 271.847 247.057C270.991 247.655 270.32 248.492 269.835 249.568C269.358 250.636 269.119 251.875 269.119 253.284C269.119 254.701 269.354 255.955 269.824 257.045C270.294 258.129 270.953 258.977 271.801 259.591C272.657 260.205 273.657 260.511 274.801 260.511C275.574 260.511 276.278 260.367 276.915 260.08C277.559 259.784 278.097 259.367 278.528 258.83C278.968 258.292 279.263 257.652 279.415 256.909H281.46C281.309 257.962 280.934 258.902 280.335 259.727C279.744 260.545 278.975 261.189 278.028 261.659C277.089 262.129 276.013 262.364 274.801 262.364ZM287.205 268.545C286.803 268.545 286.428 268.508 286.08 268.432C285.731 268.356 285.455 268.273 285.25 268.182L285.795 266.398C286.485 266.61 287.098 266.686 287.636 266.625C288.174 266.572 288.652 266.33 289.068 265.898C289.485 265.473 289.856 264.822 290.182 263.943L290.818 262.17L284.398 244.545H286.591L291.773 259.33H291.932L297.114 244.545H299.307L291.92 264.761C291.61 265.602 291.227 266.303 290.773 266.864C290.318 267.432 289.792 267.852 289.193 268.125C288.602 268.405 287.939 268.545 287.205 268.545ZM312.264 262V244.545H314.23V247.227H314.378C314.726 246.348 315.332 245.64 316.196 245.102C317.067 244.557 318.052 244.284 319.151 244.284C319.317 244.284 319.503 244.288 319.707 244.295C319.912 244.303 320.082 244.311 320.219 244.318V246.375C320.128 246.36 319.969 246.337 319.741 246.307C319.514 246.277 319.268 246.261 319.003 246.261C318.094 246.261 317.283 246.455 316.571 246.841C315.866 247.22 315.31 247.746 314.901 248.42C314.491 249.095 314.287 249.864 314.287 250.727V262H312.264ZM328.545 262.398C327.492 262.398 326.53 262.193 325.659 261.784C324.788 261.367 324.095 260.769 323.58 259.989C323.064 259.201 322.807 258.246 322.807 257.125C322.807 256.261 322.97 255.534 323.295 254.943C323.621 254.352 324.083 253.867 324.682 253.489C325.28 253.11 325.989 252.811 326.807 252.591C327.625 252.371 328.527 252.201 329.511 252.08C330.489 251.958 331.314 251.852 331.989 251.761C332.67 251.67 333.189 251.527 333.545 251.33C333.902 251.133 334.08 250.814 334.08 250.375V249.966C334.08 248.777 333.723 247.841 333.011 247.159C332.307 246.47 331.292 246.125 329.966 246.125C328.708 246.125 327.682 246.402 326.886 246.955C326.098 247.508 325.545 248.159 325.227 248.909L323.307 248.216C323.701 247.261 324.246 246.5 324.943 245.932C325.64 245.356 326.42 244.943 327.284 244.693C328.148 244.436 329.023 244.307 329.909 244.307C330.576 244.307 331.269 244.394 331.989 244.568C332.716 244.742 333.39 245.045 334.011 245.477C334.633 245.902 335.136 246.496 335.523 247.261C335.909 248.019 336.102 248.981 336.102 250.148V262H334.08V259.239H333.955C333.712 259.754 333.352 260.254 332.875 260.739C332.398 261.223 331.799 261.621 331.08 261.932C330.36 262.242 329.515 262.398 328.545 262.398ZM328.818 260.545C329.894 260.545 330.826 260.307 331.614 259.83C332.402 259.352 333.008 258.72 333.432 257.932C333.864 257.136 334.08 256.261 334.08 255.307V252.784C333.928 252.928 333.674 253.057 333.318 253.17C332.97 253.284 332.564 253.386 332.102 253.477C331.648 253.561 331.193 253.633 330.739 253.693C330.284 253.754 329.875 253.807 329.511 253.852C328.527 253.973 327.686 254.163 326.989 254.42C326.292 254.678 325.758 255.034 325.386 255.489C325.015 255.936 324.83 256.511 324.83 257.216C324.83 258.277 325.208 259.098 325.966 259.682C326.723 260.258 327.674 260.545 328.818 260.545ZM348.358 244.545V246.307H340.028V244.545H348.358ZM342.631 240.364H344.665V257.443C344.665 258.17 344.79 258.742 345.04 259.159C345.29 259.568 345.616 259.86 346.017 260.034C346.419 260.201 346.847 260.284 347.301 260.284C347.566 260.284 347.794 260.269 347.983 260.239C348.172 260.201 348.339 260.163 348.483 260.125L348.915 261.955C348.718 262.03 348.475 262.098 348.188 262.159C347.9 262.227 347.544 262.261 347.119 262.261C346.377 262.261 345.661 262.098 344.972 261.773C344.29 261.447 343.729 260.962 343.29 260.318C342.85 259.674 342.631 258.875 342.631 257.92V240.364ZM359.821 262.364C358.192 262.364 356.783 261.985 355.594 261.227C354.404 260.462 353.484 259.405 352.832 258.057C352.188 256.701 351.866 255.14 351.866 253.375C351.866 251.617 352.188 250.057 352.832 248.693C353.484 247.322 354.382 246.25 355.526 245.477C356.677 244.697 358.007 244.307 359.514 244.307C360.461 244.307 361.374 244.481 362.253 244.83C363.132 245.17 363.92 245.697 364.616 246.409C365.321 247.114 365.878 248.004 366.287 249.08C366.696 250.148 366.901 251.413 366.901 252.875V253.875H353.264V252.091H364.832C364.832 250.97 364.605 249.962 364.151 249.068C363.704 248.167 363.079 247.455 362.276 246.932C361.48 246.409 360.56 246.148 359.514 246.148C358.408 246.148 357.435 246.443 356.594 247.034C355.753 247.625 355.094 248.405 354.616 249.375C354.147 250.345 353.908 251.405 353.901 252.557V253.625C353.901 255.011 354.139 256.223 354.616 257.261C355.101 258.292 355.787 259.091 356.673 259.659C357.56 260.227 358.609 260.511 359.821 260.511C360.647 260.511 361.37 260.383 361.991 260.125C362.62 259.867 363.147 259.523 363.571 259.091C364.003 258.652 364.329 258.17 364.548 257.648L366.469 258.273C366.204 259.008 365.768 259.686 365.162 260.307C364.563 260.928 363.813 261.428 362.912 261.807C362.018 262.178 360.988 262.364 359.821 262.364Z" fill="black"/>
<path d="M258.849 409V408.416L261.699 405.212C262.072 404.791 262.371 404.432 262.599 404.134C262.826 403.835 262.991 403.56 263.093 403.307C263.198 403.054 263.251 402.791 263.251 402.518C263.251 402.186 263.172 401.896 263.016 401.649C262.863 401.399 262.651 401.205 262.381 401.065C262.111 400.926 261.807 400.857 261.469 400.857C261.111 400.857 260.797 400.933 260.528 401.087C260.26 401.24 260.053 401.45 259.905 401.717C259.758 401.984 259.684 402.291 259.684 402.638H258.921C258.921 402.155 259.032 401.727 259.253 401.355C259.478 400.98 259.783 400.686 260.17 400.473C260.559 400.26 260.999 400.153 261.491 400.153C261.976 400.153 262.408 400.259 262.786 400.469C263.164 400.676 263.461 400.959 263.677 401.317C263.893 401.675 264.001 402.075 264.001 402.518C264.001 402.839 263.944 403.151 263.83 403.452C263.719 403.753 263.528 404.088 263.255 404.457C262.982 404.827 262.604 405.278 262.121 405.812L259.956 408.229V408.284H264.273V409H258.849ZM265.776 407.125V406.477L269.667 400.273H270.144V401.359H269.791L266.667 406.354V406.409H271.768V407.125H265.776ZM269.85 409V406.92V406.622V400.273H270.609V409H269.85ZM277.912 407.381V406.984C277.912 406.658 277.977 406.364 278.108 406.102C278.238 405.838 278.425 405.629 278.666 405.476C278.907 405.322 279.194 405.246 279.527 405.246C279.862 405.246 280.149 405.322 280.388 405.476C280.626 405.629 280.809 405.838 280.937 406.102C281.065 406.364 281.129 406.658 281.129 406.984V407.381C281.129 407.707 281.064 408.001 280.933 408.263C280.805 408.524 280.622 408.733 280.383 408.889C280.145 409.043 279.859 409.119 279.527 409.119C279.189 409.119 278.899 409.043 278.657 408.889C278.419 408.733 278.234 408.524 278.104 408.263C277.976 408.001 277.912 407.707 277.912 407.381ZM278.581 406.984V407.381C278.581 407.702 278.659 407.976 278.815 408.203C278.974 408.428 279.211 408.54 279.527 408.54C279.834 408.54 280.065 408.428 280.221 408.203C280.378 407.976 280.456 407.702 280.456 407.381V406.984C280.456 406.663 280.379 406.391 280.226 406.166C280.072 405.939 279.839 405.825 279.527 405.825C279.217 405.825 278.981 405.939 278.819 406.166C278.66 406.391 278.581 406.663 278.581 406.984ZM273.514 402.288V401.892C273.514 401.565 273.579 401.271 273.71 401.01C273.841 400.749 274.027 400.541 274.268 400.388C274.51 400.232 274.797 400.153 275.129 400.153C275.464 400.153 275.751 400.232 275.99 400.388C276.229 400.541 276.412 400.749 276.54 401.01C276.667 401.271 276.731 401.565 276.731 401.892V402.288C276.731 402.615 276.666 402.911 276.535 403.175C276.407 403.436 276.224 403.643 275.986 403.797C275.747 403.95 275.461 404.027 275.129 404.027C274.791 404.027 274.501 403.95 274.26 403.797C274.021 403.643 273.836 403.436 273.706 403.175C273.578 402.911 273.514 402.615 273.514 402.288ZM274.183 401.892V402.288C274.183 402.609 274.261 402.884 274.417 403.111C274.577 403.335 274.814 403.447 275.129 403.447C275.436 403.447 275.667 403.335 275.824 403.111C275.98 402.884 276.058 402.609 276.058 402.288V401.892C276.058 401.571 275.981 401.298 275.828 401.074C275.675 400.847 275.442 400.733 275.129 400.733C274.819 400.733 274.584 400.847 274.422 401.074C274.263 401.298 274.183 401.571 274.183 401.892ZM273.906 409L279.902 400.273H280.656L274.66 409H273.906Z" fill="black"/>
<path d="M483 412C483 398.193 494.193 387 508 387H537C550.807 387 562 398.193 562 412V589H483V412Z" fill="#D7D7D7"/>
<rect x="483" y="532" width="79" height="84" fill="#878787"/>
<path d="M510.452 407.125V406.477L514.343 400.273H514.82V401.359H514.466L511.343 406.354V406.409H516.444V407.125H510.452ZM514.526 409V406.92V406.622V400.273H515.285V409H514.526ZM517.964 407.125V406.477L521.855 400.273H522.332V401.359H521.978L518.855 406.354V406.409H523.955V407.125H517.964ZM522.038 409V406.92V406.622V400.273H522.796V409H522.038ZM530.099 407.381V406.984C530.099 406.658 530.165 406.364 530.295 406.102C530.426 405.838 530.612 405.629 530.854 405.476C531.095 405.322 531.382 405.246 531.714 405.246C532.05 405.246 532.336 405.322 532.575 405.476C532.814 405.629 532.997 405.838 533.125 406.102C533.253 406.364 533.317 406.658 533.317 406.984V407.381C533.317 407.707 533.251 408.001 533.121 408.263C532.993 408.524 532.809 408.733 532.571 408.889C532.332 409.043 532.047 409.119 531.714 409.119C531.376 409.119 531.086 409.043 530.845 408.889C530.606 408.733 530.422 408.524 530.291 408.263C530.163 408.001 530.099 407.707 530.099 407.381ZM530.768 406.984V407.381C530.768 407.702 530.846 407.976 531.003 408.203C531.162 408.428 531.399 408.54 531.714 408.54C532.021 408.54 532.253 408.428 532.409 408.203C532.565 407.976 532.643 407.702 532.643 407.381V406.984C532.643 406.663 532.567 406.391 532.413 406.166C532.26 405.939 532.027 405.825 531.714 405.825C531.405 405.825 531.169 405.939 531.007 406.166C530.848 406.391 530.768 406.663 530.768 406.984ZM525.702 402.288V401.892C525.702 401.565 525.767 401.271 525.898 401.01C526.028 400.749 526.214 400.541 526.456 400.388C526.697 400.232 526.984 400.153 527.317 400.153C527.652 400.153 527.939 400.232 528.177 400.388C528.416 400.541 528.599 400.749 528.727 401.01C528.855 401.271 528.919 401.565 528.919 401.892V402.288C528.919 402.615 528.854 402.911 528.723 403.175C528.595 403.436 528.412 403.643 528.173 403.797C527.934 403.95 527.649 404.027 527.317 404.027C526.979 404.027 526.689 403.95 526.447 403.797C526.209 403.643 526.024 403.436 525.893 403.175C525.765 402.911 525.702 402.615 525.702 402.288ZM526.371 401.892V402.288C526.371 402.609 526.449 402.884 526.605 403.111C526.764 403.335 527.001 403.447 527.317 403.447C527.623 403.447 527.855 403.335 528.011 403.111C528.167 402.884 528.246 402.609 528.246 402.288V401.892C528.246 401.571 528.169 401.298 528.015 401.074C527.862 400.847 527.629 400.733 527.317 400.733C527.007 400.733 526.771 400.847 526.609 401.074C526.45 401.298 526.371 401.571 526.371 401.892ZM526.094 409L532.089 400.273H532.844L526.848 409H526.094Z" fill="black"/>
<line x1="483" y1="531.8" x2="562" y2="531.8" stroke="#3E3E3E" stroke-width="0.4"/>
<path d="M574 409C574 395.193 585.193 384 599 384H628C641.807 384 653 395.193 653 409V586H574V409Z" fill="#D7D7D7"/>
<rect x="574" y="517" width="79" height="99" fill="#878787"/>
<path d="M604.585 409.119C604.225 409.116 603.872 409.044 603.529 408.902C603.185 408.757 602.875 408.526 602.6 408.207C602.324 407.886 602.105 407.463 601.943 406.938C601.781 406.412 601.7 405.766 601.7 404.999C601.7 404.288 601.763 403.638 601.888 403.047C602.013 402.456 602.2 401.945 602.45 401.513C602.7 401.081 603.013 400.747 603.388 400.511C603.763 400.273 604.202 400.153 604.705 400.153C605.176 400.153 605.593 400.251 605.953 400.447C606.314 400.641 606.607 400.911 606.831 401.257C607.056 401.604 607.196 402.003 607.253 402.455H606.469C606.389 401.994 606.2 401.615 605.902 401.317C605.604 401.018 605.205 400.869 604.705 400.869C603.989 400.869 603.435 401.202 603.043 401.866C602.651 402.528 602.453 403.469 602.45 404.688H602.506C602.645 404.429 602.824 404.206 603.043 404.018C603.264 403.828 603.516 403.68 603.797 403.575C604.078 403.467 604.374 403.413 604.683 403.413C605.169 403.413 605.614 403.537 606.017 403.784C606.421 404.028 606.743 404.365 606.985 404.794C607.226 405.22 607.347 405.707 607.347 406.256C607.347 406.776 607.232 407.254 607.002 407.692C606.774 408.129 606.453 408.477 606.039 408.736C605.627 408.994 605.142 409.122 604.585 409.119ZM604.585 408.403C604.966 408.403 605.306 408.307 605.604 408.114C605.905 407.92 606.142 407.662 606.316 407.338C606.489 407.011 606.575 406.651 606.575 406.256C606.575 405.861 606.489 405.503 606.316 405.182C606.142 404.861 605.905 404.605 605.604 404.415C605.306 404.224 604.966 404.129 604.585 404.129C604.296 404.129 604.026 404.189 603.776 404.308C603.526 404.425 603.308 404.585 603.124 404.79C602.942 404.991 602.803 405.223 602.706 405.484C602.612 405.746 602.577 406.02 602.6 406.307C602.631 406.707 602.735 407.067 602.911 407.385C603.09 407.7 603.323 407.949 603.61 408.131C603.899 408.312 604.225 408.403 604.585 408.403ZM611.86 409.119C611.246 409.119 610.722 408.943 610.287 408.591C609.855 408.236 609.523 407.723 609.29 407.053C609.06 406.382 608.945 405.577 608.945 404.636C608.945 403.699 609.06 402.896 609.29 402.229C609.523 401.558 609.857 401.045 610.291 400.69C610.729 400.332 611.252 400.153 611.86 400.153C612.468 400.153 612.989 400.332 613.423 400.69C613.861 401.045 614.195 401.558 614.425 402.229C614.658 402.896 614.774 403.699 614.774 404.636C614.774 405.577 614.658 406.382 614.425 407.053C614.195 407.723 613.862 408.236 613.428 408.591C612.996 408.943 612.473 409.119 611.86 409.119ZM611.86 408.403C612.533 408.403 613.058 408.075 613.436 407.419C613.814 406.76 614.003 405.832 614.003 404.636C614.003 403.841 613.916 403.162 613.743 402.599C613.573 402.034 613.327 401.602 613.006 401.304C612.688 401.006 612.306 400.857 611.86 400.857C611.192 400.857 610.668 401.189 610.287 401.854C609.906 402.516 609.716 403.443 609.716 404.636C609.716 405.432 609.801 406.111 609.972 406.673C610.145 407.236 610.391 407.665 610.709 407.96C611.03 408.256 611.414 408.403 611.86 408.403ZM620.923 407.381V406.984C620.923 406.658 620.989 406.364 621.119 406.102C621.25 405.838 621.436 405.629 621.678 405.476C621.919 405.322 622.206 405.246 622.539 405.246C622.874 405.246 623.161 405.322 623.399 405.476C623.638 405.629 623.821 405.838 623.949 406.102C624.077 406.364 624.141 406.658 624.141 406.984V407.381C624.141 407.707 624.075 408.001 623.945 408.263C623.817 408.524 623.634 408.733 623.395 408.889C623.156 409.043 622.871 409.119 622.539 409.119C622.2 409.119 621.911 409.043 621.669 408.889C621.431 408.733 621.246 408.524 621.115 408.263C620.987 408.001 620.923 407.707 620.923 407.381ZM621.593 406.984V407.381C621.593 407.702 621.671 407.976 621.827 408.203C621.986 408.428 622.223 408.54 622.539 408.54C622.845 408.54 623.077 408.428 623.233 408.203C623.389 407.976 623.468 407.702 623.468 407.381V406.984C623.468 406.663 623.391 406.391 623.237 406.166C623.084 405.939 622.851 405.825 622.539 405.825C622.229 405.825 621.993 405.939 621.831 406.166C621.672 406.391 621.593 406.663 621.593 406.984ZM616.526 402.288V401.892C616.526 401.565 616.591 401.271 616.722 401.01C616.852 400.749 617.039 400.541 617.28 400.388C617.521 400.232 617.808 400.153 618.141 400.153C618.476 400.153 618.763 400.232 619.002 400.388C619.24 400.541 619.423 400.749 619.551 401.01C619.679 401.271 619.743 401.565 619.743 401.892V402.288C619.743 402.615 619.678 402.911 619.547 403.175C619.419 403.436 619.236 403.643 618.997 403.797C618.759 403.95 618.473 404.027 618.141 404.027C617.803 404.027 617.513 403.95 617.271 403.797C617.033 403.643 616.848 403.436 616.718 403.175C616.59 402.911 616.526 402.615 616.526 402.288ZM617.195 401.892V402.288C617.195 402.609 617.273 402.884 617.429 403.111C617.588 403.335 617.825 403.447 618.141 403.447C618.448 403.447 618.679 403.335 618.835 403.111C618.992 402.884 619.07 402.609 619.07 402.288V401.892C619.07 401.571 618.993 401.298 618.84 401.074C618.686 400.847 618.453 400.733 618.141 400.733C617.831 400.733 617.595 400.847 617.433 401.074C617.274 401.298 617.195 401.571 617.195 401.892ZM616.918 409L622.914 400.273H623.668L617.672 409H616.918Z" fill="black"/>
<line x1="574" y1="516.8" x2="653" y2="516.8" stroke="#3E3E3E" stroke-width="0.4"/>
<rect x="398" y="464" width="79" height="152" fill="#878787"/>
<path d="M426.481 409L430.457 401.044V400.989H425.876V400.273H431.292V401.023L427.32 409H426.481ZM435.552 409.119C435.191 409.116 434.839 409.044 434.495 408.902C434.152 408.757 433.842 408.526 433.566 408.207C433.291 407.886 433.072 407.463 432.91 406.938C432.748 406.412 432.667 405.766 432.667 404.999C432.667 404.288 432.73 403.638 432.855 403.047C432.98 402.456 433.167 401.945 433.417 401.513C433.667 401.081 433.98 400.747 434.355 400.511C434.73 400.273 435.169 400.153 435.672 400.153C436.143 400.153 436.559 400.251 436.92 400.447C437.281 400.641 437.574 400.911 437.798 401.257C438.022 401.604 438.163 402.003 438.22 402.455H437.436C437.356 401.994 437.167 401.615 436.869 401.317C436.571 401.018 436.172 400.869 435.672 400.869C434.956 400.869 434.402 401.202 434.01 401.866C433.618 402.528 433.42 403.469 433.417 404.688H433.473C433.612 404.429 433.791 404.206 434.01 404.018C434.231 403.828 434.483 403.68 434.764 403.575C435.045 403.467 435.341 403.413 435.65 403.413C436.136 403.413 436.581 403.537 436.984 403.784C437.387 404.028 437.71 404.365 437.951 404.794C438.193 405.22 438.314 405.707 438.314 406.256C438.314 406.776 438.199 407.254 437.968 407.692C437.741 408.129 437.42 408.477 437.005 408.736C436.593 408.994 436.109 409.122 435.552 409.119ZM435.552 408.403C435.933 408.403 436.272 408.307 436.571 408.114C436.872 407.92 437.109 407.662 437.282 407.338C437.456 407.011 437.542 406.651 437.542 406.256C437.542 405.861 437.456 405.503 437.282 405.182C437.109 404.861 436.872 404.605 436.571 404.415C436.272 404.224 435.933 404.129 435.552 404.129C435.262 404.129 434.993 404.189 434.743 404.308C434.493 404.425 434.275 404.585 434.091 404.79C433.909 404.991 433.77 405.223 433.673 405.484C433.579 405.746 433.544 406.02 433.566 406.307C433.598 406.707 433.701 407.067 433.877 407.385C434.056 407.7 434.289 407.949 434.576 408.131C434.866 408.312 435.191 408.403 435.552 408.403ZM444.531 407.381V406.984C444.531 406.658 444.596 406.364 444.727 406.102C444.858 405.838 445.044 405.629 445.285 405.476C445.527 405.322 445.814 405.246 446.146 405.246C446.481 405.246 446.768 405.322 447.007 405.476C447.245 405.629 447.429 405.838 447.556 406.102C447.684 406.364 447.748 406.658 447.748 406.984V407.381C447.748 407.707 447.683 408.001 447.552 408.263C447.424 408.524 447.241 408.733 447.002 408.889C446.764 409.043 446.478 409.119 446.146 409.119C445.808 409.119 445.518 409.043 445.277 408.889C445.038 408.733 444.853 408.524 444.723 408.263C444.595 408.001 444.531 407.707 444.531 407.381ZM445.2 406.984V407.381C445.2 407.702 445.278 407.976 445.434 408.203C445.593 408.428 445.831 408.54 446.146 408.54C446.453 408.54 446.684 408.428 446.841 408.203C446.997 407.976 447.075 407.702 447.075 407.381V406.984C447.075 406.663 446.998 406.391 446.845 406.166C446.691 405.939 446.458 405.825 446.146 405.825C445.836 405.825 445.6 405.939 445.439 406.166C445.279 406.391 445.2 406.663 445.2 406.984ZM440.133 402.288V401.892C440.133 401.565 440.199 401.271 440.329 401.01C440.46 400.749 440.646 400.541 440.887 400.388C441.129 400.232 441.416 400.153 441.748 400.153C442.083 400.153 442.37 400.232 442.609 400.388C442.848 400.541 443.031 400.749 443.159 401.01C443.287 401.271 443.35 401.565 443.35 401.892V402.288C443.35 402.615 443.285 402.911 443.154 403.175C443.027 403.436 442.843 403.643 442.605 403.797C442.366 403.95 442.081 404.027 441.748 404.027C441.41 404.027 441.12 403.95 440.879 403.797C440.64 403.643 440.456 403.436 440.325 403.175C440.197 402.911 440.133 402.615 440.133 402.288ZM440.802 401.892V402.288C440.802 402.609 440.88 402.884 441.037 403.111C441.196 403.335 441.433 403.447 441.748 403.447C442.055 403.447 442.287 403.335 442.443 403.111C442.599 402.884 442.677 402.609 442.677 402.288V401.892C442.677 401.571 442.6 401.298 442.447 401.074C442.294 400.847 442.061 400.733 441.748 400.733C441.439 400.733 441.203 400.847 441.041 401.074C440.882 401.298 440.802 401.571 440.802 401.892ZM440.525 409L446.521 400.273H447.275L441.279 409H440.525Z" fill="black"/>
<line x1="398" y1="463.8" x2="477" y2="463.8" stroke="#3E3E3E" stroke-width="0.4"/>
<path d="M313 407C313 393.193 324.193 382 338 382H367C380.807 382 392 393.193 392 407V584H313V407Z" fill="#D7D7D7"/>
<rect x="313" y="562" width="79" height="54" fill="#878787"/>
<line x1="313" y1="561.8" x2="392" y2="561.8" stroke="#3E3E3E" stroke-width="0.4"/>
<path d="M344.477 409.119C343.94 409.119 343.46 409.023 343.037 408.83C342.614 408.634 342.278 408.362 342.031 408.016C341.784 407.669 341.653 407.27 341.639 406.818H342.445C342.459 407.136 342.557 407.415 342.739 407.653C342.92 407.889 343.162 408.074 343.463 408.207C343.764 408.338 344.099 408.403 344.469 408.403C344.872 408.403 345.227 408.328 345.534 408.178C345.844 408.027 346.085 407.821 346.259 407.56C346.435 407.295 346.523 406.997 346.523 406.665C346.523 406.312 346.433 406.001 346.254 405.732C346.075 405.462 345.818 405.251 345.483 405.101C345.151 404.95 344.753 404.875 344.29 404.875H343.778V404.159H344.29C344.668 404.159 345.001 404.091 345.291 403.955C345.584 403.815 345.814 403.621 345.982 403.371C346.149 403.121 346.233 402.827 346.233 402.489C346.233 402.168 346.161 401.885 346.016 401.641C345.871 401.396 345.666 401.205 345.402 401.065C345.141 400.926 344.835 400.857 344.486 400.857C344.148 400.857 343.838 400.922 343.557 401.053C343.276 401.183 343.048 401.368 342.875 401.607C342.705 401.845 342.614 402.128 342.602 402.455H341.831C341.842 402 341.967 401.601 342.206 401.257C342.447 400.911 342.767 400.641 343.165 400.447C343.565 400.251 344.009 400.153 344.494 400.153C345.009 400.153 345.453 400.259 345.828 400.469C346.203 400.679 346.493 400.959 346.697 401.308C346.905 401.655 347.009 402.037 347.009 402.455C347.009 402.952 346.874 403.378 346.604 403.733C346.334 404.085 345.97 404.33 345.513 404.466V404.521C346.07 404.632 346.507 404.879 346.825 405.263C347.146 405.643 347.307 406.111 347.307 406.665C347.307 407.131 347.185 407.55 346.94 407.922C346.696 408.291 346.361 408.584 345.935 408.8C345.511 409.013 345.026 409.119 344.477 409.119ZM348.982 407.125V406.477L352.872 400.273H353.349V401.359H352.996L349.872 406.354V406.409H354.973V407.125H348.982ZM353.055 409V406.92V406.622V400.273H353.814V409H353.055ZM361.117 407.381V406.984C361.117 406.658 361.182 406.364 361.313 406.102C361.444 405.838 361.63 405.629 361.871 405.476C362.113 405.322 362.4 405.246 362.732 405.246C363.067 405.246 363.354 405.322 363.593 405.476C363.831 405.629 364.015 405.838 364.142 406.102C364.27 406.364 364.334 406.658 364.334 406.984V407.381C364.334 407.707 364.269 408.001 364.138 408.263C364.01 408.524 363.827 408.733 363.588 408.889C363.35 409.043 363.064 409.119 362.732 409.119C362.394 409.119 362.104 409.043 361.863 408.889C361.624 408.733 361.439 408.524 361.309 408.263C361.181 408.001 361.117 407.707 361.117 407.381ZM361.786 406.984V407.381C361.786 407.702 361.864 407.976 362.02 408.203C362.179 408.428 362.417 408.54 362.732 408.54C363.039 408.54 363.27 408.428 363.426 408.203C363.583 407.976 363.661 407.702 363.661 407.381V406.984C363.661 406.663 363.584 406.391 363.431 406.166C363.277 405.939 363.044 405.825 362.732 405.825C362.422 405.825 362.186 405.939 362.025 406.166C361.865 406.391 361.786 406.663 361.786 406.984ZM356.719 402.288V401.892C356.719 401.565 356.784 401.271 356.915 401.01C357.046 400.749 357.232 400.541 357.473 400.388C357.715 400.232 358.002 400.153 358.334 400.153C358.669 400.153 358.956 400.232 359.195 400.388C359.434 400.541 359.617 400.749 359.745 401.01C359.873 401.271 359.936 401.565 359.936 401.892V402.288C359.936 402.615 359.871 402.911 359.74 403.175C359.613 403.436 359.429 403.643 359.191 403.797C358.952 403.95 358.667 404.027 358.334 404.027C357.996 404.027 357.706 403.95 357.465 403.797C357.226 403.643 357.042 403.436 356.911 403.175C356.783 402.911 356.719 402.615 356.719 402.288ZM357.388 401.892V402.288C357.388 402.609 357.466 402.884 357.623 403.111C357.782 403.335 358.019 403.447 358.334 403.447C358.641 403.447 358.873 403.335 359.029 403.111C359.185 402.884 359.263 402.609 359.263 402.288V401.892C359.263 401.571 359.186 401.298 359.033 401.074C358.88 400.847 358.647 400.733 358.334 400.733C358.025 400.733 357.789 400.847 357.627 401.074C357.468 401.298 357.388 401.571 357.388 401.892ZM357.111 409L363.107 400.273H363.861L357.865 409H357.111Z" fill="black"/>
<line x1="249" y1="462.5" x2="637" y2="462.5" stroke="url(#paint0_linear_393_40)" stroke-width="3" stroke-dasharray="9 9"/>
<defs>
<linearGradient id="paint0_linear_393_40" x1="249" y1="464.5" x2="637" y2="464.5" gradientUnits="userSpaceOnUse">
<stop stop-color="#F4B7E1"/>
<stop offset="0.511646" stop-color="#D20093"/>
<stop offset="1" stop-color="#F4B7E1"/>
</linearGradient>
</defs>
</svg>
