<svg width="483" height="354" viewBox="0 0 483 354" fill="none" xmlns="http://www.w3.org/2000/svg">
<g filter="url(#filter0_i_413_66)">
<circle cx="223" cy="177" r="177" fill="url(#paint0_radial_413_66)"/>
</g>
<g filter="url(#filter1_i_413_66)">
<circle cx="223" cy="177" r="142" stroke="#D84FAE" stroke-width="2"/>
</g>
<circle cx="223" cy="188" r="34" fill="#D84FAE"/>
<circle cx="223.5" cy="188.5" r="43" stroke="#FF92DE" stroke-width="9"/>
<line x1="165.856" y1="246.516" x2="186.516" y2="225.144" stroke="#FF92DE" stroke-width="12" stroke-linecap="round"/>
<path d="M223 177L223 199" stroke="white" stroke-width="2" stroke-linecap="round"/>
<path d="M213 188L234 188" stroke="white" stroke-width="2" stroke-linecap="round"/>
<rect x="288" y="85" width="195" height="49" rx="24.5" fill="#D84FAE"/>
<path d="M292.998 140C292.998 127 290.997 121.833 288.497 113C307.497 120.167 358.894 135.14 342.498 133.5C322.498 131.5 303.5 140 292.998 150.5C283.996 159.5 292.998 147.826 292.998 140Z" fill="#D84FAE"/>
<rect x="213" y="13" width="75" height="35" rx="17.5" fill="#D84FAE"/>
<path d="M214.922 54C214.922 41 214.152 35.8333 213.191 27C220.499 34.1667 240.33 46.1274 233.961 47.5C227 49 224.539 48 220.5 58.5C217.038 67.5 214.922 61.8256 214.922 54Z" fill="#D84FAE"/>
<rect width="195" height="49" rx="24.5" transform="matrix(-1 0 0 1 195 44)" fill="#D84FAE"/>
<path d="M190.002 99C190.002 86 192.003 80.8333 194.503 72C175.503 79.1667 124.106 94.1396 140.502 92.5C160.502 90.5 179.5 99 190.002 109.5C199.004 118.5 190.002 106.826 190.002 99Z" fill="#D84FAE"/>
<rect width="142" height="35.6821" rx="17.841" transform="matrix(-1 0 0 1 145 138)" fill="#D84FAE"/>
<path d="M141.36 178.051C141.36 168.585 142.818 164.822 144.638 158.39C130.802 163.608 93.3742 174.512 105.314 173.318C119.878 171.861 133.713 178.051 141.36 185.697C147.915 192.251 141.36 183.75 141.36 178.051Z" fill="#D84FAE"/>
<circle cx="240.5" cy="30.5" r="3.5" fill="#D9D9D9"/>
<circle cx="250.5" cy="30.5" r="3.5" fill="#D9D9D9"/>
<circle cx="260.5" cy="30.5" r="3.5" fill="#D9D9D9"/>
<line x1="401" y1="105" x2="457" y2="105" stroke="#D9D9D9" stroke-width="4" stroke-linecap="round"/>
<line x1="86" y1="61" x2="142" y2="61" stroke="#D9D9D9" stroke-width="4" stroke-linecap="round"/>
<line x1="69" y1="151" x2="103" y2="151" stroke="#D9D9D9" stroke-width="2" stroke-linecap="round"/>
<line x1="361" y1="117" x2="457" y2="117" stroke="#D9D9D9" stroke-width="4" stroke-linecap="round"/>
<line x1="46" y1="70" x2="142" y2="70" stroke="#D9D9D9" stroke-width="4" stroke-linecap="round"/>
<line x1="45" y1="157" x2="103" y2="157" stroke="#D9D9D9" stroke-width="2" stroke-linecap="round"/>
<line x1="46" y1="79" x2="142" y2="79" stroke="#D9D9D9" stroke-width="4" stroke-linecap="round"/>
<line x1="45" y1="163" x2="103" y2="163" stroke="#D9D9D9" stroke-width="2" stroke-linecap="round"/>
<defs>
<filter id="filter0_i_413_66" x="46" y="0" width="354" height="358" filterUnits="userSpaceOnUse" color-interpolation-filters="sRGB">
<feFlood flood-opacity="0" result="BackgroundImageFix"/>
<feBlend mode="normal" in="SourceGraphic" in2="BackgroundImageFix" result="shape"/>
<feColorMatrix in="SourceAlpha" type="matrix" values="0 0 0 0 0 0 0 0 0 0 0 0 0 0 0 0 0 0 127 0" result="hardAlpha"/>
<feOffset dy="4"/>
<feGaussianBlur stdDeviation="12"/>
<feComposite in2="hardAlpha" operator="arithmetic" k2="-1" k3="1"/>
<feColorMatrix type="matrix" values="0 0 0 0 0.847059 0 0 0 0 0.309804 0 0 0 0 0.682353 0 0 0 0.68 0"/>
<feBlend mode="normal" in2="shape" result="effect1_innerShadow_413_66"/>
</filter>
<filter id="filter1_i_413_66" x="80" y="34" width="286" height="290" filterUnits="userSpaceOnUse" color-interpolation-filters="sRGB">
<feFlood flood-opacity="0" result="BackgroundImageFix"/>
<feBlend mode="normal" in="SourceGraphic" in2="BackgroundImageFix" result="shape"/>
<feColorMatrix in="SourceAlpha" type="matrix" values="0 0 0 0 0 0 0 0 0 0 0 0 0 0 0 0 0 0 127 0" result="hardAlpha"/>
<feOffset dy="4"/>
<feGaussianBlur stdDeviation="12"/>
<feComposite in2="hardAlpha" operator="arithmetic" k2="-1" k3="1"/>
<feColorMatrix type="matrix" values="0 0 0 0 0.847059 0 0 0 0 0.309804 0 0 0 0 0.682353 0 0 0 0.68 0"/>
<feBlend mode="normal" in2="shape" result="effect1_innerShadow_413_66"/>
</filter>
<radialGradient id="paint0_radial_413_66" cx="0" cy="0" r="1" gradientUnits="userSpaceOnUse" gradientTransform="translate(223 177) rotate(90) scale(239)">
<stop stop-color="#FFE9F9" stop-opacity="0.66"/>
<stop offset="1" stop-color="#FA90E6"/>
</radialGradient>
</defs>
</svg>
