<svg width="900" height="900" viewBox="0 0 900 900" fill="none" xmlns="http://www.w3.org/2000/svg">
<g clip-path="url(#clip0_390_4)">
<rect width="900" height="900" fill="#FCFBFB"/>
<rect x="307.5" y="263.5" width="316" height="188" rx="21.5" fill="#DFDCDE" stroke="#D20093"/>
<rect x="272.5" y="282.5" width="385" height="339" rx="32.5" fill="#F3E9E9" stroke="#D20093"/>
<rect x="289.5" y="300.5" width="351" height="220" rx="32.5" fill="#E8E8E8" stroke="#D20093"/>
<path d="M662 574.5H269C260.992 574.5 254.5 568.008 254.5 560C254.5 551.992 260.992 545.5 269 545.5H401.945C407.116 545.5 412.209 546.768 416.777 549.192C421.489 551.692 426.742 553 432.077 553H494.438C498.536 553 502.518 551.645 505.766 549.146C508.838 546.782 512.606 545.5 516.483 545.5H662C670.008 545.5 676.5 551.992 676.5 560C676.5 568.008 670.008 574.5 662 574.5Z" fill="#E8E5E7" stroke="#D20093"/>
<circle cx="283" cy="451" r="34" fill="#C6BAC3"/>
<circle cx="283.5" cy="451.5" r="43" stroke="#5E5959" stroke-width="9"/>
<line x1="225.856" y1="509.516" x2="246.516" y2="488.144" stroke="#665C61" stroke-width="12" stroke-linecap="round"/>
<mask id="path-8-outside-1_390_4" maskUnits="userSpaceOnUse" x="538" y="371" width="66" height="49" fill="black">
<rect fill="white" x="538" y="371" width="66" height="49"/>
<path d="M551.903 419H539.812L555.517 372.455H570.494L586.199 419H574.108L563.176 384.182H562.812L551.903 419ZM550.29 400.682H575.562V409.227H550.29V400.682ZM602.46 372.455V419H591.21V372.455H602.46Z"/>
</mask>
<path d="M551.903 419H539.812L555.517 372.455H570.494L586.199 419H574.108L563.176 384.182H562.812L551.903 419ZM550.29 400.682H575.562V409.227H550.29V400.682ZM602.46 372.455V419H591.21V372.455H602.46Z" fill="#D20093"/>
<path d="M551.903 419V420H552.638L552.858 419.299L551.903 419ZM539.812 419L538.865 418.68L538.42 420H539.812V419ZM555.517 372.455V371.455H554.799L554.57 372.135L555.517 372.455ZM570.494 372.455L571.442 372.135L571.212 371.455H570.494V372.455ZM586.199 419V420H587.592L587.146 418.68L586.199 419ZM574.108 419L573.154 419.3L573.374 420H574.108V419ZM563.176 384.182L564.13 383.882L563.91 383.182H563.176V384.182ZM562.812 384.182V383.182H562.078L561.858 383.883L562.812 384.182ZM550.29 400.682V399.682H549.29V400.682H550.29ZM575.562 400.682H576.562V399.682H575.562V400.682ZM575.562 409.227V410.227H576.562V409.227H575.562ZM550.29 409.227H549.29V410.227H550.29V409.227ZM551.903 418H539.812V420H551.903V418ZM540.76 419.32L556.465 372.774L554.57 372.135L538.865 418.68L540.76 419.32ZM555.517 373.455H570.494V371.455H555.517V373.455ZM569.547 372.774L585.251 419.32L587.146 418.68L571.442 372.135L569.547 372.774ZM586.199 418H574.108V420H586.199V418ZM575.062 418.7L564.13 383.882L562.222 384.481L573.154 419.3L575.062 418.7ZM563.176 383.182H562.812V385.182H563.176V383.182ZM561.858 383.883L550.949 418.701L552.858 419.299L563.767 384.481L561.858 383.883ZM550.29 401.682H575.562V399.682H550.29V401.682ZM574.562 400.682V409.227H576.562V400.682H574.562ZM575.562 408.227H550.29V410.227H575.562V408.227ZM551.29 409.227V400.682H549.29V409.227H551.29ZM602.46 372.455H603.46V371.455H602.46V372.455ZM602.46 419V420H603.46V419H602.46ZM591.21 419H590.21V420H591.21V419ZM591.21 372.455V371.455H590.21V372.455H591.21ZM601.46 372.455V419H603.46V372.455H601.46ZM602.46 418H591.21V420H602.46V418ZM592.21 419V372.455H590.21V419H592.21ZM591.21 373.455H602.46V371.455H591.21V373.455Z" fill="#D20093" mask="url(#path-8-outside-1_390_4)"/>
<path d="M558 447L606 447" stroke="#D20093" stroke-width="6" stroke-linecap="round"/>
<path d="M511 461H606" stroke="#D20093" stroke-width="6" stroke-linecap="round"/>
<path d="M511 475H606" stroke="#D20093" stroke-width="6" stroke-linecap="round"/>
<path d="M283 440L283 462" stroke="#D20093" stroke-width="2" stroke-linecap="round"/>
<path d="M273 451L294 451" stroke="#D20093" stroke-width="2" stroke-linecap="round"/>
<path d="M24.9829 688.962L89.5838 669.274L154.49 650.616L203.84 696.718L252.452 743.598L237.201 809.388L220.907 874.928L156.306 894.615L91.4005 913.274L42.0499 867.172L-6.56161 820.291L8.68867 754.501L24.9829 688.962Z" fill="#F7F7F7"/>
<path d="M219.361 873.805L256.236 817.226L294.005 761.241L361.441 764.886L428.811 769.602L459.372 829.826L488.972 890.528L452.098 947.107L414.328 1003.09L346.892 999.447L279.523 994.731L248.961 934.507L219.361 873.805Z" fill="#F7F7F7"/>
<path d="M488.292 906.327L518.432 845.891L549.528 785.942L616.937 781.825L684.402 778.781L721.672 835.1L758.041 892.005L727.902 952.441L696.805 1012.39L629.397 1016.51L561.931 1019.55L524.662 963.232L488.292 906.327Z" fill="#F7F7F7"/>
<path d="M745.736 874.633L741.561 807.228L738.459 739.765L794.746 702.447L851.62 666.029L912.082 696.116L972.058 727.161L976.232 794.566L979.334 862.029L923.047 899.347L866.173 935.765L805.712 905.678L745.736 874.633Z" fill="#F7F7F7"/>
<path d="M900.065 668.129L841.312 634.828L783.095 600.597L782.559 533.065L783.095 465.532L841.312 431.301L900.065 398L958.818 431.301L1017.03 465.532L1017.57 533.065L1017.03 600.597L958.818 634.828L900.065 668.129Z" fill="#F7F7F7"/>
<path d="M900.065 376.129L841.312 342.828L783.095 308.597L782.559 241.065L783.095 173.532L841.312 139.301L900.065 106L958.818 139.301L1017.03 173.532L1017.57 241.065L1017.03 308.597L958.818 342.828L900.065 376.129Z" fill="#F7F7F7"/>
<path d="M23.0645 668.129L-35.6885 634.828L-93.9047 600.597L-94.4415 533.065L-93.9047 465.532L-35.6885 431.301L23.0645 398L81.8175 431.301L140.034 465.532L140.571 533.065L140.034 600.597L81.8175 634.828L23.0645 668.129Z" fill="#F7F7F7"/>
<path d="M23.0645 384.129L-35.6885 350.828L-93.9047 316.597L-94.4415 249.065L-93.9047 181.532L-35.6885 147.301L23.0645 114L81.8175 147.301L140.034 181.532L140.571 249.065L140.034 316.597L81.8175 350.828L23.0645 384.129Z" fill="#F7F7F7"/>
<path d="M53.1782 97.2485L57.9241 29.8812L63.7403 -37.4022L124.455 -66.9758L185.632 -95.5805L241.601 -57.7868L296.962 -19.108L292.216 48.2593L286.4 115.543L225.685 145.116L164.508 173.721L108.539 135.927L53.1782 97.2485Z" fill="#F7F7F7"/>
<path d="M330.34 2.04378L364.655 -56.1234L399.889 -113.738L467.421 -113.104L534.933 -111.397L568.151 -52.5966L600.429 6.72459L566.114 64.8917L530.88 122.506L463.348 121.873L395.836 120.166L362.619 61.365L330.34 2.04378Z" fill="#F7F7F7"/>
<path d="M619.838 4.22245L667.536 -43.5882L715.987 -90.6346L781.241 -73.233L846.21 -54.7962L863.766 10.4162L880.284 75.8994L832.587 123.71L784.136 170.756L718.882 153.355L653.913 134.918L636.356 69.7056L619.838 4.22245Z" fill="#F7F7F7"/>
<circle cx="454.5" cy="450.5" r="657.5" fill="url(#paint0_radial_390_4)" fill-opacity="0.4"/>
<circle cx="449.5" cy="234.5" r="6.5" fill="#E377C3" fill-opacity="0.4"/>
<circle cx="449.5" cy="700.5" r="6.5" fill="#E377C3" fill-opacity="0.4"/>
<line x1="449.5" y1="206" x2="449.5" y2="106" stroke="#FF92DE"/>
<line x1="449.5" y1="804" x2="449.5" y2="716" stroke="#FF92DE"/>
</g>
<defs>
<radialGradient id="paint0_radial_390_4" cx="0" cy="0" r="1" gradientUnits="userSpaceOnUse" gradientTransform="translate(454.5 450.5) rotate(90) scale(657.5)">
<stop stop-color="#E377C3" stop-opacity="0"/>
<stop offset="0.724526" stop-color="#767676" stop-opacity="0.69"/>
<stop offset="1" stop-color="#5F5C5E" stop-opacity="0.67"/>
</radialGradient>
<clipPath id="clip0_390_4">
<rect width="900" height="900" fill="white"/>
</clipPath>
</defs>
</svg>
